{"glyphs":{":":{"x_min":0,"x_max":271,"ha":271,"o":"m 65 63 q 65 99 88 124 q 111 149 147 149 q 181 149 205 126 q 229 102 229 68 q 229 36 206 13 q 183 -13 150 -13 q 115 -13 90 8 q 65 30 65 63 z m 65 308 q 65 344 88 369 q 111 394 147 394 q 181 394 205 370 q 229 347 229 313 q 229 282 206 257 q 183 232 150 232 q 115 232 90 254 q 65 275 65 308 z"},"$":{"x_min":0,"x_max":604,"ha":604,"o":"m 290 663 q 298 715 315 759 l 347 767 l 361 754 l 348 705 l 345 690 l 342 675 q 349 677 365 680 q 381 684 400 686 q 419 689 445 689 q 460 689 486 686 q 511 684 531 675 q 551 666 565 647 l 575 617 l 560 573 q 554 569 542 565 l 534 564 l 501 576 l 498 579 l 491 589 q 478 607 465 610 q 452 613 402 613 l 357 608 l 338 604 q 338 552 336 510 q 329 362 329 350 l 328 295 l 328 241 l 354 225 l 402 197 l 414 189 q 426 182 438 173 q 445 168 460 155 q 497 121 497 84 q 497 38 439 7 q 415 -6 392 -14 q 368 -21 340 -25 l 332 -26 l 325 -27 l 326 -39 l 326 -51 l 334 -110 l 319 -119 l 275 -111 l 266 -97 l 267 -70 l 268 -43 l 268 -37 l 268 -30 q 230 -30 204 -26 q 179 -22 137 -7 l 112 2 l 97 41 l 134 80 l 154 80 l 163 74 q 219 39 269 26 l 271 188 q 254 193 246 196 q 239 199 199 214 q 149 236 126 251 q 36 307 36 403 q 36 452 61 498 q 86 545 139 588 q 180 622 232 643 q 245 648 259 654 q 273 659 290 663 z m 183 312 l 205 299 l 209 297 l 259 274 l 271 269 q 271 305 273 390 q 275 474 275 482 l 281 589 q 225 576 173 539 q 97 482 97 427 q 97 368 183 312 z m 417 64 q 438 88 438 102 q 438 122 385 146 l 342 166 l 336 168 l 328 170 l 326 22 l 338 25 q 392 36 417 64 z"},"?":{"x_min":0,"x_max":393,"ha":393,"o":"m 124 60 q 124 76 131 90 q 138 104 150 115 q 174 136 205 136 q 239 136 262 111 q 286 86 286 54 q 286 21 261 -3 q 236 -27 204 -27 q 169 -27 145 -1 q 135 10 130 27 q 124 44 124 60 z m 305 226 l 309 206 l 299 193 l 293 191 q 281 188 270 188 q 252 188 228 200 q 185 220 185 278 q 185 305 196 349 l 204 376 l 206 380 l 244 469 l 248 479 l 273 540 l 291 591 q 295 603 295 614 q 295 638 272 648 q 250 659 199 659 q 160 659 119 636 l 109 629 l 113 579 q 107 567 95 562 q 81 560 72 564 q 64 568 47 585 l 38 594 l 36 596 l 24 609 q 13 622 13 635 q 13 650 27 668 q 41 685 69 703 q 115 732 191 732 q 245 732 283 708 q 321 683 341 640 q 356 608 356 580 q 356 545 328 467 q 320 445 307 418 q 294 390 280 360 l 270 337 l 255 291 q 252 279 252 270 q 252 226 298 226 z"},"a":{"x_min":0,"x_max":805,"ha":805,"o":"m 718 305 l 736 306 l 754 307 l 774 308 l 793 310 l 798 285 l 796 281 l 795 278 l 793 275 l 791 273 l 777 268 l 763 263 l 749 258 l 734 254 l 743 223 l 757 172 l 789 53 l 792 37 l 797 15 l 771 -15 l 748 -15 l 744 -11 l 740 -7 l 735 -1 l 730 4 l 726 23 l 722 40 q 708 91 701 117 q 691 152 675 199 l 660 242 l 568 227 q 486 213 454 203 q 421 193 387 171 q 380 167 368 158 q 357 149 341 134 l 323 137 l 317 139 l 311 141 l 298 156 l 293 162 l 289 169 l 291 196 l 293 207 l 295 217 l 300 222 l 304 224 q 330 242 361 252 q 392 262 456 271 l 529 282 l 557 286 l 598 291 l 641 296 q 627 342 612 382 q 597 423 568 487 l 553 519 q 517 593 488 626 q 460 658 430 658 q 415 658 396 650 q 377 642 356 628 q 328 609 296 572 q 260 530 218 464 q 180 403 150 332 q 119 261 106 210 q 92 158 92 119 q 92 97 96 80 q 100 62 107 46 l 108 39 l 106 31 q 101 15 93 4 l 60 -11 q 34 -3 12 14 q 7 46 7 70 q 7 127 35 224 q 53 286 87 358 q 121 429 169 501 q 199 547 218 573 q 238 599 260 624 q 303 670 348 692 q 392 715 436 715 q 481 715 518 692 q 555 669 581 626 q 612 575 636 522 q 659 469 691 381 l 709 332 z"},"L":{"x_min":0,"x_max":545,"ha":545,"o":"m 58 18 l 63 22 l 68 25 l 75 29 l 81 34 l 87 102 l 91 159 l 103 329 q 103 390 107 426 q 111 463 116 500 q 120 537 121 555 q 122 573 121 580 l 120 587 l 114 613 l 112 622 l 120 647 l 180 670 l 195 655 l 198 641 l 202 626 l 206 611 l 211 595 q 208 572 200 556 l 194 546 l 188 473 l 175 329 l 167 177 l 164 138 q 162 118 158 100 q 155 83 149 61 l 168 66 l 196 73 q 274 91 327 100 q 380 110 426 110 l 438 111 l 454 111 l 488 136 l 495 136 l 502 132 l 508 128 q 520 122 526 116 l 529 103 l 532 91 l 535 79 l 538 68 l 520 34 q 497 37 462 38 q 428 39 424 39 q 384 39 347 36 q 310 33 260 25 q 210 17 165 8 q 120 -2 96 -9 l 89 -11 l 77 -15 l 64 -3 z"},"3":{"x_min":0,"x_max":486,"ha":486,"o":"m 59 -101 l 61 -92 l 64 -83 l 67 -73 l 71 -64 l 86 -58 l 128 -38 l 152 -47 l 157 -44 l 163 -41 l 178 -33 l 203 -18 q 232 -1 252 19 q 272 39 285 65 q 306 107 306 131 q 306 160 274 195 q 265 206 252 214 q 238 223 208 237 l 200 244 q 192 252 192 260 q 192 272 220 297 l 239 314 q 267 343 286 370 q 305 396 312 414 q 319 431 319 445 q 319 465 308 478 q 297 491 285 493 q 273 495 262 495 q 255 495 244 494 q 233 493 215 490 l 195 487 l 172 482 l 166 478 l 160 475 l 151 469 l 142 463 l 135 461 l 128 460 l 119 458 l 110 456 l 104 461 l 98 465 l 87 478 l 101 524 l 115 530 l 129 535 l 160 545 q 230 565 279 565 q 328 565 359 544 q 405 511 405 464 q 405 450 402 434 q 398 418 388 401 q 375 379 349 344 l 332 324 l 315 304 l 309 298 q 298 285 298 279 q 298 273 315 261 l 331 250 q 402 195 402 141 q 402 106 373 54 q 357 28 328 0 q 294 -33 246 -64 q 234 -72 210 -86 q 192 -96 179 -103 q 137 -122 118 -128 q 100 -133 83 -133 l 73 -131 l 69 -123 l 65 -115 l 62 -108 z"},";":{"x_min":0,"x_max":270,"ha":270,"o":"m 72 -140 l 83 -100 l 98 -48 l 99 -44 l 100 -41 l 106 9 l 110 42 l 102 73 l 97 92 l 144 128 l 163 123 l 172 119 l 180 116 l 187 109 l 193 102 l 200 94 l 207 86 l 207 61 l 203 38 l 193 13 l 169 -47 l 166 -53 q 160 -65 154 -78 q 149 -90 131 -122 l 112 -158 l 82 -158 z m 65 307 q 65 345 88 369 q 112 393 146 393 q 179 393 203 369 q 227 345 227 311 q 227 278 205 256 q 182 230 146 230 q 115 230 92 251 q 65 275 65 307 z"},"J":{"x_min":0,"x_max":482,"ha":482,"o":"m 58 379 q 68 382 82 385 q 96 388 107 388 l 130 378 l 134 370 q 135 363 135 352 q 135 341 133 331 q 127 309 124 294 q 120 279 120 256 q 120 232 122 220 q 123 208 130 175 q 136 142 146 119 q 156 96 171 80 q 193 57 225 57 q 275 57 301 111 q 314 136 322 165 q 330 194 339 251 q 344 283 348 317 q 351 351 351 398 l 351 487 q 351 496 351 501 q 351 544 347 565 l 324 703 l 323 707 q 321 714 332 724 q 336 728 352 733 l 367 737 l 371 738 q 385 725 407 722 l 408 714 l 412 697 q 420 653 424 605 q 427 557 427 505 l 427 415 q 427 351 419 298 q 416 279 403 222 q 377 105 336 52 q 294 -2 231 -10 q 224 -11 210 -11 q 158 -11 120 24 q 82 58 59 131 q 51 158 48 181 q 45 204 40 247 q 35 290 35 305 q 35 330 40 344 q 44 357 58 379 z"},"V":{"x_min":0,"x_max":677,"ha":677,"o":"m 22 619 q 27 639 40 652 q 56 663 80 668 l 93 669 l 96 662 l 100 654 l 106 644 l 111 635 q 111 582 116 536 q 120 489 131 422 q 142 354 158 293 q 175 232 195 182 q 224 110 236 88 q 269 29 292 29 q 315 29 357 80 q 373 100 387 121 q 393 129 417 170 q 437 203 460 252 q 483 302 504 359 q 526 416 538 462 q 551 508 560 564 l 551 585 q 549 601 549 610 q 549 616 549 622 q 551 631 552 640 q 553 650 557 662 q 561 673 570 688 l 585 692 l 601 695 l 632 700 l 645 690 l 649 686 l 652 683 l 653 670 l 654 658 l 655 648 l 655 638 q 648 568 627 500 q 606 431 552 305 q 508 205 480 158 q 452 110 405 53 q 343 -21 286 -21 q 221 -21 171 74 q 132 147 114 190 q 96 232 72 308 q 44 398 33 470 q 22 541 22 619 z"},"7":{"x_min":0,"x_max":486,"ha":486,"o":"m 27 475 l 48 521 l 65 524 l 87 527 l 138 532 q 265 532 323 494 q 381 457 381 372 q 381 345 380 334 q 378 323 373 300 l 370 288 l 404 283 l 432 279 l 451 250 l 441 225 l 393 231 l 374 233 l 356 234 l 345 205 q 315 132 278 70 q 240 9 184 -59 l 176 -69 l 151 -98 l 128 -125 l 124 -129 l 117 -134 l 109 -134 l 101 -135 l 83 -133 l 76 -125 q 67 -114 67 -110 q 67 -103 74 -95 l 84 -80 l 89 -74 l 150 -1 l 181 39 q 218 88 242 128 q 266 167 283 205 l 289 217 l 295 233 l 264 231 l 234 230 l 198 227 l 162 224 q 142 238 133 260 l 138 268 l 145 275 l 150 281 l 156 287 l 176 289 l 193 291 q 206 292 219 292 q 232 293 252 293 q 268 293 276 293 l 300 293 l 317 292 l 318 300 l 321 318 q 324 335 324 350 q 324 405 284 430 q 243 455 154 455 l 126 451 l 116 441 l 100 439 l 84 437 l 68 436 l 53 434 l 46 443 l 40 453 l 34 464 z"},"S":{"x_min":0,"x_max":690,"ha":690,"o":"m 715 690 l 718 664 l 718 655 l 719 645 l 703 635 l 680 624 q 659 629 640 638 l 635 645 l 631 650 l 620 661 q 603 677 584 684 q 565 692 538 692 q 493 692 404 663 q 315 634 256 596 q 198 559 149 503 q 107 456 107 423 q 107 377 198 337 l 268 307 l 276 303 l 347 276 l 431 244 l 455 235 l 503 215 q 552 193 578 158 q 603 124 603 86 q 603 42 570 9 q 558 -4 536 -16 q 513 -27 476 -38 q 462 -42 436 -43 q 409 -44 367 -44 l 333 -42 q 300 -42 274 -37 q 268 -36 219 -23 l 204 -19 q 183 -8 169 10 q 166 18 166 26 q 166 56 198 77 l 204 81 l 239 81 l 273 53 l 280 51 l 305 46 l 340 38 l 360 34 q 380 31 406 28 q 433 26 453 26 q 462 26 465 26 q 473 26 486 28 q 498 30 511 38 q 538 53 538 76 q 538 92 522 108 q 507 123 484 135 q 462 147 405 170 l 309 207 l 231 237 l 156 272 q 28 330 28 400 q 28 452 90 535 q 118 573 164 610 q 209 648 266 679 q 355 728 432 752 q 508 775 568 775 q 634 775 672 751 q 711 727 715 690 z"},"Z":{"x_min":0,"x_max":701,"ha":701,"o":"m 269 364 l 229 361 l 122 346 l 90 346 l 81 355 l 73 364 l 63 376 l 53 389 l 69 411 l 75 419 l 82 426 l 142 430 q 175 422 204 420 q 234 418 320 418 l 343 419 l 352 419 l 366 420 q 395 432 420 445 q 446 458 468 473 q 520 506 544 532 q 568 557 568 579 q 568 600 543 622 q 531 633 505 641 q 479 649 432 655 q 422 657 398 657 q 375 657 359 658 l 321 658 q 281 658 263 656 q 245 654 218 649 l 209 647 l 194 644 l 171 627 l 138 611 l 91 611 l 84 632 l 82 641 l 80 649 q 93 667 108 684 q 123 701 140 718 q 172 722 202 726 q 232 729 253 729 q 299 729 358 728 q 417 728 456 719 q 495 710 520 700 q 544 691 570 676 q 635 637 635 577 q 635 524 579 472 q 551 447 525 434 l 519 432 l 512 429 l 654 429 l 669 412 q 670 403 664 393 l 654 383 l 626 383 l 582 383 q 546 383 518 382 q 489 381 463 380 l 445 379 l 422 377 l 352 343 l 338 335 l 273 299 q 207 263 177 240 q 147 217 123 185 q 113 172 108 158 q 103 143 103 130 q 103 85 148 69 q 169 61 194 58 q 219 55 266 55 q 303 55 347 61 l 395 69 l 412 74 l 475 89 l 489 93 l 501 101 l 513 109 l 525 117 l 536 126 q 553 129 566 131 q 578 133 587 133 q 599 134 608 134 q 618 135 624 135 q 632 135 636 135 q 653 132 666 118 l 667 109 l 668 101 l 668 95 l 668 90 l 664 77 q 659 63 649 48 l 639 41 l 595 31 q 475 5 386 -4 q 326 -10 250 -10 q 202 -10 170 -2 q 139 5 102 22 q 19 59 19 128 q 19 173 59 219 q 86 251 127 280 q 172 312 249 354 z"},"x":{"x_min":0,"x_max":747,"ha":747,"o":"m 295 341 q 255 384 218 434 q 181 484 148 539 l 140 553 l 105 614 l 90 643 q 88 651 88 654 q 88 666 95 670 q 138 693 149 693 q 162 693 174 664 q 185 635 204 601 q 224 567 260 512 q 277 486 290 468 q 303 450 324 423 l 346 393 l 374 422 l 408 457 l 462 510 q 534 579 588 622 q 642 666 674 683 q 705 700 726 700 q 748 700 754 679 l 751 662 l 750 656 l 747 640 q 745 627 742 624 q 740 622 722 614 l 694 604 l 683 599 q 656 590 623 565 q 584 536 501 461 q 479 441 462 425 q 433 396 417 380 l 384 346 q 434 281 477 236 q 507 203 537 170 q 552 154 559 154 q 562 154 570 159 l 580 166 l 589 171 q 597 175 599 175 q 608 175 629 144 l 642 120 q 656 92 656 82 q 656 70 628 48 q 617 41 604 41 q 599 41 581 45 l 572 49 l 550 70 l 485 133 l 475 142 l 390 232 l 349 276 l 332 296 l 314 278 l 271 234 q 168 125 121 64 q 100 37 79 9 q 53 -26 45 -39 l 28 -68 l 25 -72 q 20 -78 15 -82 l 10 -80 l 0 -76 q -15 -71 -15 -52 q -15 -41 -12 -17 q -10 7 12 36 q 33 65 111 147 l 229 272 l 258 302 z"},")":{"x_min":0,"x_max":304,"ha":304,"o":"m 14 704 l 27 730 q 53 732 77 722 q 101 713 132 684 q 162 656 186 606 q 210 556 226 480 q 231 456 233 413 q 235 370 235 320 l 235 222 q 235 191 229 153 q 223 115 220 97 q 198 -18 174 -76 q 150 -134 107 -179 l 96 -180 l 56 -177 l 27 -136 l 33 -104 q 64 -92 86 -51 q 112 -5 140 103 q 152 149 158 176 q 163 202 163 237 q 170 301 170 363 q 170 433 162 486 q 153 538 137 577 q 114 632 94 655 q 73 678 49 683 l 35 685 z"},"&":{"x_min":0,"x_max":670,"ha":670,"o":"m 193 193 l 178 212 q 138 271 138 350 q 138 382 146 427 q 166 535 241 620 q 301 688 358 718 q 416 748 490 748 q 604 748 604 663 q 604 644 602 634 q 601 625 596 609 q 585 571 557 515 q 519 441 424 337 q 379 290 307 225 l 286 207 l 267 191 q 310 151 363 130 q 380 142 399 155 q 412 164 455 197 l 485 221 l 491 241 l 507 250 l 523 258 l 539 267 l 555 274 l 592 273 l 602 265 q 604 249 604 243 q 604 235 602 221 l 600 207 l 561 177 q 541 161 511 140 q 488 124 458 104 q 479 100 506 98 q 532 97 543 97 l 602 87 l 610 78 l 608 64 q 605 45 593 28 q 583 18 566 16 l 558 16 l 553 16 q 529 16 502 20 q 474 25 436 35 l 399 47 l 389 51 l 377 56 l 357 46 q 274 6 219 -11 q 164 -28 122 -28 q 83 -28 45 -12 q 21 -1 21 16 q 21 28 33 48 q 41 60 58 76 q 74 92 122 133 z m 277 75 l 296 85 l 307 91 l 280 108 q 250 130 226 157 l 195 131 l 164 105 l 84 41 l 92 31 q 110 29 121 29 q 156 29 194 40 q 232 52 277 75 z m 277 274 l 308 309 q 364 371 390 404 q 417 438 439 473 q 471 524 491 567 q 507 602 511 624 l 512 630 l 513 646 q 513 670 503 680 q 493 690 464 690 q 448 690 428 688 q 407 686 370 668 q 332 649 296 617 q 250 575 218 500 q 186 425 186 365 q 186 332 194 305 q 201 278 218 251 l 234 229 l 255 251 z"},"_":{"x_min":0,"x_max":562,"ha":562,"o":"m -7 0 l -7 36 l 569 36 l 569 0 z"},"v":{"x_min":0,"x_max":690,"ha":690,"o":"m 14 547 l 14 554 l 30 568 q 33 571 38 577 q 42 583 46 590 l 52 591 l 57 592 l 63 592 l 69 592 q 89 563 104 532 q 118 500 136 449 l 139 440 l 180 300 q 205 216 232 150 l 248 109 l 255 94 q 261 80 264 69 q 266 58 277 58 q 281 58 288 62 q 295 66 305 83 l 312 99 l 327 136 l 332 151 l 355 218 l 378 285 l 404 355 q 426 407 444 442 q 461 476 479 505 q 521 574 552 610 q 582 647 615 669 q 638 678 660 678 q 666 668 669 660 q 672 652 679 622 l 689 583 q 691 573 687 565 l 681 557 l 674 550 l 655 531 l 621 549 q 610 555 606 555 q 602 555 594 546 l 579 529 l 576 524 q 524 457 498 408 q 473 359 440 261 l 393 127 q 374 72 365 51 q 356 30 339 0 l 304 -20 l 268 -36 q 259 -36 251 -36 q 239 -34 234 -33 l 224 -30 q 216 -16 212 -8 q 209 -1 201 25 l 200 32 l 192 64 q 187 84 179 110 q 171 137 146 210 q 110 320 71 413 l 54 454 l 34 502 l 23 527 z"},"O":{"x_min":0,"x_max":715,"ha":715,"o":"m 361 512 l 359 485 l 330 464 q 256 411 210 362 q 165 312 135 253 q 117 218 117 182 q 117 125 161 83 q 209 37 294 25 q 317 22 339 22 q 361 22 388 27 q 463 40 514 84 q 564 127 588 197 q 605 250 605 294 q 605 371 553 434 q 501 497 389 553 q 373 561 348 572 q 322 584 303 590 l 292 606 l 292 642 l 301 651 q 316 663 335 671 l 399 646 l 413 628 l 442 613 q 564 548 622 472 q 681 396 681 302 q 681 244 658 172 q 626 76 542 20 q 458 -35 334 -35 q 287 -35 234 -26 q 141 -8 88 48 q 35 104 35 180 q 35 241 69 302 q 112 381 204 459 l 251 497 l 263 505 l 297 528 q 314 540 324 540 q 329 540 338 537 l 345 534 z"},"(":{"x_min":0,"x_max":287,"ha":287,"o":"m 210 725 l 223 727 q 241 721 244 702 l 230 678 q 204 629 186 579 q 168 529 157 475 q 140 390 140 308 q 140 214 167 115 q 189 32 214 -18 q 239 -67 266 -92 l 269 -95 l 273 -99 l 267 -147 l 228 -175 l 204 -166 q 130 -67 91 74 q 75 129 70 171 q 66 213 65 248 q 64 282 64 286 q 64 389 92 478 q 120 568 189 688 l 207 720 z"},"C":{"x_min":0,"x_max":723,"ha":723,"o":"m 561 526 l 575 513 l 579 533 l 584 552 l 603 619 l 606 629 l 609 638 l 615 645 l 621 647 l 627 649 l 633 650 l 639 651 l 646 648 l 665 625 q 655 598 650 570 q 645 543 639 477 l 637 446 l 636 424 l 636 401 l 631 396 q 623 388 613 385 q 601 385 590 390 q 578 394 567 403 q 567 423 567 442 q 567 461 570 483 q 457 457 346 399 q 264 356 214 316 q 165 276 128 228 q 92 179 92 145 q 92 99 151 83 q 210 67 213 66 q 266 53 324 53 q 372 49 430 49 q 487 49 547 55 q 607 61 664 72 l 673 69 l 677 64 l 680 57 l 684 51 l 687 44 l 682 30 l 622 12 q 494 -23 382 -23 q 368 -23 352 -22 q 336 -21 328 -21 q 246 -14 188 3 q 131 20 99 44 q 34 92 34 161 q 34 185 38 202 q 42 218 44 227 q 62 292 126 349 q 197 412 328 465 q 368 481 420 496 q 472 510 532 521 z"},"W":{"x_min":0,"x_max":920,"ha":920,"o":"m 43 428 l 44 456 q 44 477 47 501 q 50 525 51 538 l 59 546 l 66 554 l 75 562 l 85 569 q 99 571 106 571 q 112 571 121 569 q 130 567 139 564 l 144 557 q 152 548 155 536 q 158 512 158 489 q 158 474 157 467 l 153 459 l 149 450 l 142 436 l 135 422 l 135 400 l 135 374 q 135 293 144 235 q 154 177 173 130 q 205 47 245 47 q 271 47 306 77 l 338 107 l 350 120 l 395 177 q 448 242 488 242 q 532 242 584 156 l 595 138 q 611 108 623 89 q 630 77 637 69 q 662 41 684 41 q 709 41 738 86 l 754 117 q 774 162 780 178 q 797 226 797 292 q 797 308 797 319 q 797 330 797 337 q 797 360 796 389 q 796 418 788 452 l 771 462 q 737 499 713 544 l 715 556 q 716 565 720 576 q 724 587 727 595 l 755 608 l 771 604 l 787 599 l 800 595 l 813 591 q 839 556 852 526 q 866 495 872 456 q 874 444 875 428 q 876 411 876 395 q 876 381 876 366 q 875 351 875 335 q 875 329 875 326 q 875 217 834 127 q 799 50 746 9 q 700 -26 674 -26 q 648 -26 623 5 l 605 26 l 599 35 l 581 58 l 570 72 l 556 87 q 522 121 490 121 q 467 121 441 101 l 411 78 l 404 72 l 386 57 l 365 41 q 354 32 335 20 q 320 11 306 4 q 293 -2 276 -7 q 258 -12 242 -12 q 183 -12 141 46 q 95 109 66 243 q 57 288 50 328 q 44 368 44 395 l 43 410 z"},"A":{"x_min":0,"x_max":816,"ha":816,"o":"m 341 656 l 335 661 l 329 666 l 325 670 l 321 674 l 315 684 q 315 697 316 706 q 317 715 321 724 l 367 759 q 391 756 409 742 q 418 732 426 719 q 435 706 456 663 l 476 621 q 514 546 544 498 q 573 449 624 376 l 680 295 l 683 289 l 691 277 l 764 285 l 771 277 l 779 270 l 787 261 l 796 252 l 787 229 l 778 217 l 766 217 l 754 217 l 742 216 l 730 217 l 739 205 q 799 126 807 40 l 794 23 q 772 26 756 38 l 752 49 l 747 61 q 734 97 715 131 l 709 140 l 677 191 l 664 212 l 627 210 l 598 209 q 560 209 487 199 q 444 193 402 187 q 317 176 256 166 q 195 155 131 140 l 130 137 l 124 124 q 109 89 109 70 q 109 48 128 19 l 137 4 q 137 -11 128 -22 q 119 -33 110 -38 l 100 -36 l 84 -32 l 65 -26 q 4 -5 4 19 q 4 30 8 45 q 16 71 21 87 q 37 137 82 226 q 135 330 220 471 q 246 515 265 544 q 284 573 309 611 l 323 631 z m 201 228 l 397 247 l 587 267 l 623 271 l 609 293 l 597 311 l 523 420 q 483 478 443 537 q 417 573 379 616 l 366 596 l 355 579 q 277 456 191 276 l 176 244 l 168 225 l 191 227 z"},"f":{"x_min":0,"x_max":711,"ha":711,"o":"m 156 575 l 134 570 l 119 581 l 117 584 l 115 588 l 113 594 l 116 604 l 119 614 l 123 624 l 127 634 l 144 642 l 155 647 l 180 652 l 206 656 q 295 671 387 679 q 431 683 476 685 q 520 687 574 687 q 655 687 686 675 q 716 663 722 634 l 722 628 l 722 622 q 722 607 716 592 q 711 576 700 560 l 688 543 l 668 535 q 656 533 649 534 l 631 542 l 626 546 l 621 550 l 619 567 l 623 572 l 626 576 l 632 589 q 625 610 596 617 q 567 624 479 624 q 440 624 388 618 q 337 611 274 599 l 229 590 q 220 562 212 533 q 211 528 197 475 q 192 455 182 411 q 176 386 168 346 q 254 374 317 384 q 401 398 523 398 l 577 399 l 587 388 q 587 374 581 362 l 578 356 q 516 356 454 346 q 392 336 215 287 l 155 270 q 150 254 147 241 q 144 228 142 213 q 136 169 136 141 q 136 109 144 86 q 152 62 166 45 q 168 33 168 28 q 168 21 166 11 l 163 7 l 161 4 l 157 0 l 154 -3 q 139 -6 116 -7 q 94 -8 92 -8 q 74 1 64 20 q 55 40 55 79 q 55 128 71 212 l 87 286 l 130 465 l 137 495 z"},"Q":{"x_min":0,"x_max":833,"ha":833,"o":"m 518 664 l 523 662 q 534 655 539 647 l 542 639 l 548 608 l 599 598 q 690 575 743 510 q 796 445 796 361 q 796 321 784 282 q 771 243 746 206 q 720 169 681 134 q 637 94 575 53 l 540 32 l 574 21 q 671 -10 748 -26 q 824 -43 898 -43 l 879 -76 l 838 -74 q 728 -74 630 -53 q 550 -36 456 0 l 445 -3 l 424 -7 q 365 -20 309 -20 q 201 -20 132 32 q 63 83 42 174 q 39 184 38 196 q 37 207 37 223 q 37 340 139 452 q 255 579 463 648 z m 257 472 q 232 455 206 428 q 179 400 157 365 l 134 324 q 113 280 113 236 q 113 163 162 109 q 210 55 294 41 l 344 35 l 388 36 l 373 48 l 290 90 l 281 111 l 290 139 l 309 158 l 333 151 q 360 143 383 121 l 401 97 l 444 76 l 474 61 q 545 88 602 138 q 660 189 690 247 q 720 305 720 360 q 720 416 692 462 q 664 509 613 538 q 562 568 500 568 q 490 568 478 566 q 465 565 458 564 q 328 542 296 421 l 292 401 l 268 386 l 258 387 q 246 395 241 406 q 241 414 242 419 q 243 425 249 443 q 255 461 269 480 l 261 475 z"},"w":{"x_min":0,"x_max":905,"ha":905,"o":"m 186 763 q 200 760 211 753 l 218 748 l 220 731 l 221 688 q 221 662 219 655 q 217 648 205 636 l 201 633 l 187 623 q 172 612 162 566 q 152 521 138 379 q 131 310 129 277 q 127 244 127 196 l 126 174 l 125 103 q 125 62 126 53 q 128 44 136 39 q 144 34 153 37 q 160 40 166 45 q 172 50 183 65 q 200 88 227 158 q 262 250 314 425 l 330 471 l 365 561 q 384 602 389 608 q 391 610 411 616 l 445 625 l 452 623 l 455 621 l 461 595 l 467 568 l 468 563 l 474 466 q 474 428 480 378 q 486 327 488 307 q 500 216 506 180 q 513 145 521 117 q 535 71 572 71 q 588 71 605 83 q 629 102 647 138 q 665 175 707 295 q 731 365 745 419 q 759 473 766 518 q 785 643 785 669 q 785 678 794 691 q 798 696 806 703 q 818 713 837 726 l 846 731 l 861 733 q 869 729 872 725 q 883 715 883 697 q 883 685 881 677 l 873 640 l 870 628 q 826 458 786 341 q 745 224 710 154 q 682 99 664 70 q 646 40 626 17 q 599 -15 564 -15 q 513 -15 473 55 q 448 101 434 163 q 411 263 411 409 l 406 472 l 393 430 l 375 379 q 342 281 312 211 q 283 141 260 99 q 234 51 222 34 q 210 18 192 2 q 173 -15 148 -15 q 128 -15 111 -4 q 94 7 87 24 q 80 42 76 58 q 73 74 73 93 l 68 181 l 67 202 q 67 287 68 374 q 70 461 70 479 l 74 545 l 79 609 l 81 631 q 86 683 95 700 q 104 716 141 740 q 152 748 156 750 q 162 753 173 758 z"},"-":{"x_min":0,"x_max":433,"ha":433,"o":"m 43 270 l 43 280 q 49 295 56 307 q 63 319 75 334 l 92 338 l 107 341 q 128 346 154 350 q 179 353 204 353 l 212 353 l 324 350 l 332 350 l 368 351 l 386 333 l 390 304 l 389 295 l 382 287 l 374 278 l 365 270 l 357 261 l 345 260 l 342 262 l 332 266 q 315 274 300 274 l 269 274 l 214 270 l 192 269 l 167 268 q 152 267 149 266 q 141 264 125 258 l 121 256 l 98 246 l 80 238 z"},"E":{"x_min":0,"x_max":718,"ha":718,"o":"m 126 578 q 111 579 100 589 l 97 593 l 95 597 l 92 603 l 87 617 q 83 628 83 636 q 83 646 89 655 l 119 677 l 126 677 l 132 673 q 146 667 171 667 l 195 669 l 207 670 l 248 674 l 276 677 l 304 681 l 425 697 l 443 699 l 509 707 q 535 710 553 710 q 588 710 647 690 l 670 682 l 678 666 l 682 649 l 679 641 l 670 633 q 665 629 661 626 q 658 624 642 616 l 625 621 l 597 628 l 584 632 q 566 636 554 638 q 542 640 524 640 q 481 640 318 609 q 292 605 266 598 q 239 592 198 582 l 186 523 l 155 378 l 152 358 q 143 312 132 230 l 177 238 q 323 267 406 278 q 509 292 602 292 l 631 293 l 660 294 l 666 293 l 669 291 l 671 274 l 615 234 l 599 233 l 589 233 q 562 233 536 230 q 509 227 493 225 q 394 214 314 198 q 233 182 172 163 l 158 158 l 136 150 l 139 137 q 151 77 196 41 q 241 5 305 5 q 372 5 446 48 l 474 66 l 485 74 l 493 80 q 500 82 514 83 q 527 84 534 84 q 554 75 554 50 q 554 43 551 34 q 548 24 540 16 q 533 8 515 -2 q 508 -6 490 -14 q 452 -31 416 -42 q 380 -52 352 -56 q 324 -60 295 -60 q 187 -60 126 8 q 65 76 65 188 q 65 240 79 320 q 93 401 102 456 l 116 530 l 120 551 z"},"s":{"x_min":0,"x_max":792,"ha":792,"o":"m 628 676 l 603 662 q 578 650 558 646 q 538 641 520 641 l 512 642 l 503 646 l 498 652 l 491 661 l 485 667 l 475 677 q 463 689 451 689 q 435 689 369 666 q 319 649 269 618 q 210 582 179 552 q 165 539 150 523 q 136 507 131 496 q 126 485 126 474 q 126 438 172 427 q 184 424 196 424 q 210 424 260 430 l 293 435 l 369 448 l 402 454 l 512 474 q 537 479 556 480 q 576 481 606 481 q 626 481 635 481 q 693 481 728 442 q 764 404 764 346 q 764 317 754 290 q 730 218 671 156 q 607 90 504 38 q 422 -3 344 -24 q 267 -45 214 -45 q 200 -45 193 -44 q 122 -37 91 -18 q 60 2 60 36 q 60 43 62 52 q 63 61 67 74 q 88 141 113 176 q 135 207 158 212 q 192 218 192 191 l 188 178 l 176 144 l 171 133 q 158 94 158 78 q 158 60 170 52 q 182 44 213 40 q 218 39 224 39 q 231 39 238 39 q 297 39 377 64 q 457 89 539 139 q 584 166 612 196 q 640 226 652 258 q 665 289 665 319 q 665 363 637 388 q 609 413 557 413 q 533 413 514 411 q 495 409 450 401 l 406 393 l 314 375 l 304 373 l 251 362 q 179 350 158 350 q 149 350 140 352 q 130 353 125 354 q 79 363 54 390 q 28 416 28 452 q 28 470 39 493 q 50 516 69 539 q 88 562 131 602 q 165 633 230 671 q 302 713 378 742 q 468 777 550 785 q 572 787 592 788 q 611 790 620 790 q 661 790 661 756 q 661 747 658 736 l 646 707 z"},"l":{"x_min":0,"x_max":482,"ha":482,"o":"m 186 749 q 202 754 224 754 l 233 750 q 244 737 249 726 l 258 700 l 249 683 l 242 670 q 226 634 207 584 q 188 533 170 476 q 153 419 142 362 q 130 306 124 261 q 118 216 118 187 q 118 107 162 80 q 201 56 312 56 q 335 56 358 60 q 381 65 412 74 l 428 79 l 443 84 l 457 74 l 468 60 l 466 54 l 458 40 q 446 19 434 11 q 421 3 386 -4 q 367 -7 340 -10 q 312 -12 273 -12 l 233 -12 q 107 -12 79 29 q 55 64 55 225 q 55 255 62 294 q 68 334 72 362 q 77 391 84 426 q 92 462 101 496 q 124 587 144 644 q 163 701 186 749 z"},"8":{"x_min":0,"x_max":485,"ha":485,"o":"m 18 483 l 46 507 l 67 497 l 77 482 l 84 472 l 104 444 l 135 400 l 167 356 l 182 334 l 191 322 l 204 303 l 227 333 l 234 341 l 310 441 l 358 503 q 384 536 393 552 q 402 567 404 583 q 410 618 366 618 q 353 618 318 604 q 302 599 278 584 q 253 568 211 537 l 183 515 l 173 508 l 165 501 l 120 501 q 114 507 108 513 q 107 514 97 527 l 90 539 q 90 547 90 555 q 93 563 94 566 l 96 574 l 108 582 l 120 590 l 162 616 q 230 656 284 676 q 337 697 367 697 q 419 697 440 676 q 461 655 461 602 q 461 584 450 562 q 440 541 407 490 l 265 299 l 261 293 l 235 257 l 273 204 l 310 152 l 321 136 l 343 101 q 358 73 366 53 q 375 33 378 22 q 381 10 381 -1 q 381 -52 321 -52 q 311 -52 306 -52 q 284 -52 264 -49 q 214 -42 175 -25 q 71 20 71 78 q 71 98 82 124 q 93 150 113 181 l 136 216 l 162 252 l 172 265 l 160 281 l 150 294 q 143 302 122 327 q 95 359 87 367 l 68 388 l 33 424 l 31 427 l 18 442 l 17 451 l 17 461 l 17 472 z m 211 13 l 241 0 q 272 -9 291 -9 q 308 -9 318 4 q 329 16 325 33 q 322 46 318 56 q 313 67 300 85 l 266 138 l 241 173 l 232 187 l 222 200 l 208 217 l 183 170 q 154 107 154 79 q 154 42 211 13 z"},"e":{"x_min":0,"x_max":700,"ha":700,"o":"m 171 568 l 190 573 q 207 576 224 576 q 236 576 250 573 q 198 476 163 370 q 254 387 350 387 q 375 387 405 386 q 435 384 475 380 q 493 380 516 376 q 538 372 550 370 q 550 362 550 359 q 550 341 547 323 l 513 322 l 391 318 q 296 318 256 313 q 216 308 147 291 q 146 287 144 278 q 143 269 142 259 q 141 249 140 236 q 140 224 140 218 q 140 50 290 50 q 307 50 318 52 q 329 54 335 54 q 364 58 392 69 q 420 80 472 110 l 490 121 l 545 154 q 565 165 574 168 q 583 172 596 174 q 602 169 608 164 q 614 160 621 152 l 628 144 l 627 137 l 626 131 l 624 125 l 623 120 q 597 87 558 62 q 518 36 459 15 q 413 -2 370 -10 q 328 -18 290 -18 q 182 -18 120 43 q 58 104 58 203 q 58 278 80 357 q 101 436 145 522 z m 160 611 l 167 625 q 180 647 195 664 q 268 688 326 699 q 383 710 418 715 q 453 720 484 720 q 533 720 570 703 q 607 686 656 643 l 671 630 l 666 623 l 660 616 l 643 598 q 610 614 588 621 q 551 635 528 640 q 504 646 478 646 q 440 646 362 628 q 342 624 313 616 q 284 608 252 598 l 212 585 l 203 585 l 194 586 l 187 588 l 179 589 z"},"b":{"x_min":0,"x_max":851,"ha":851,"o":"m 83 619 l 96 638 q 118 666 140 686 l 144 688 q 165 688 179 683 l 193 676 l 231 683 q 291 694 335 700 q 379 706 407 706 q 429 706 452 706 q 476 706 500 707 q 519 707 539 704 q 589 696 616 669 q 643 642 643 601 q 643 566 622 527 q 598 479 534 432 l 519 422 q 548 422 570 420 q 593 417 630 410 q 666 402 690 394 q 715 387 740 375 q 791 349 818 312 q 844 276 844 235 q 844 183 802 136 q 770 101 736 76 q 703 52 643 21 q 583 -10 505 -35 q 442 -56 380 -69 q 319 -82 289 -82 q 233 -82 218 -78 q 203 -73 203 -49 q 203 -43 203 -37 q 205 -28 205 -23 q 205 -13 208 -4 q 210 5 216 19 q 252 47 291 63 l 300 57 l 303 54 l 306 50 q 295 31 295 10 q 295 4 297 -6 q 332 -6 362 -4 q 391 -1 432 7 q 541 31 618 73 q 688 111 730 165 q 755 197 755 231 q 755 264 730 292 q 704 319 656 336 q 609 353 566 359 q 523 365 465 365 l 457 365 l 423 363 l 394 362 l 389 361 l 374 354 l 346 341 l 325 331 l 310 324 q 265 307 244 307 q 228 307 205 325 l 195 333 l 192 337 l 192 344 l 195 364 l 216 373 q 269 396 309 407 q 361 421 414 421 l 438 423 l 452 424 l 477 441 q 501 461 518 480 q 534 498 545 518 q 560 545 560 570 q 560 629 492 646 q 474 651 458 653 q 443 655 406 655 q 374 655 337 652 q 300 649 249 640 l 217 634 l 213 617 l 211 609 l 181 496 q 178 486 170 444 q 162 402 155 364 q 145 308 142 280 q 138 253 138 233 q 138 176 150 144 q 161 112 188 88 l 186 77 l 183 67 l 181 57 l 179 48 l 136 27 l 122 32 l 115 44 q 91 90 83 109 q 65 150 65 192 q 65 226 70 270 q 76 314 79 341 q 88 402 104 470 l 114 512 q 118 530 117 535 l 107 552 l 100 565 l 92 578 q 80 599 80 608 q 80 613 83 619 z"},"%":{"x_min":0,"x_max":874,"ha":874,"o":"m 114 665 l 144 665 l 172 649 l 179 636 l 172 615 l 168 611 l 158 602 q 134 578 123 554 q 112 530 110 509 q 108 488 108 474 q 108 452 118 432 q 127 411 146 398 q 164 386 188 386 q 215 386 238 404 q 262 421 278 455 q 293 489 299 542 q 299 569 298 586 q 296 604 291 623 l 274 631 l 249 645 q 208 670 208 689 q 208 700 224 716 l 229 720 l 263 720 l 267 718 l 304 703 q 311 701 318 694 q 326 687 339 668 l 347 657 l 352 650 q 405 619 474 619 q 548 619 640 657 l 658 665 l 676 663 l 687 641 q 642 600 602 551 q 557 495 478 379 l 401 264 l 376 225 l 276 67 l 269 55 l 258 20 l 236 -11 l 197 -11 l 171 21 l 173 38 q 237 146 318 260 q 399 374 520 522 l 556 565 l 581 595 l 566 592 q 530 585 502 581 q 474 577 456 577 q 440 577 423 580 q 406 582 385 588 l 376 590 l 369 592 l 370 580 l 370 568 l 368 532 q 350 411 258 363 q 215 341 174 341 q 124 341 87 371 q 50 401 40 452 q 38 460 37 468 q 36 475 36 485 q 36 523 46 557 q 57 591 83 629 l 100 651 l 106 657 z m 650 343 l 664 327 l 673 332 l 675 334 l 707 353 q 720 363 742 363 q 767 363 788 349 q 810 335 826 304 q 838 283 838 244 q 838 217 830 185 q 823 153 807 118 q 773 46 712 7 q 663 -24 615 -24 q 567 -24 533 5 q 499 34 488 83 q 485 97 485 112 q 485 157 515 216 q 541 265 575 297 q 609 329 650 343 z m 628 250 q 572 183 560 121 q 556 101 556 84 q 556 71 561 59 q 581 14 624 14 q 655 14 685 40 q 706 58 720 82 q 734 105 749 147 q 770 216 770 242 q 770 249 769 252 q 763 285 746 295 q 738 300 725 300 q 702 300 674 278 l 655 261 l 653 258 l 651 254 l 646 253 l 637 261 l 635 259 z"},"m":{"x_min":0,"x_max":838,"ha":838,"o":"m 118 631 l 122 637 l 126 642 l 131 646 l 136 651 l 141 652 l 146 653 l 152 653 l 158 654 l 172 650 l 177 648 l 181 646 q 185 617 191 590 q 194 576 202 547 q 230 446 276 394 q 317 347 365 347 q 401 347 437 375 q 473 403 502 434 q 535 469 576 525 q 601 558 621 590 q 641 622 686 703 l 702 732 l 714 735 q 733 735 742 716 l 735 703 l 740 701 l 745 698 l 751 696 l 756 693 l 763 685 q 774 673 778 658 l 771 609 l 763 557 l 752 465 q 739 351 735 274 q 731 197 731 105 l 727 100 q 721 93 712 93 l 709 94 l 706 95 q 699 98 696 100 q 689 106 686 108 l 671 123 q 667 151 667 186 q 670 264 672 342 q 675 420 675 485 q 678 515 680 536 q 683 557 689 593 l 674 566 q 638 498 598 442 q 559 387 529 357 q 443 271 358 271 q 308 271 266 304 q 223 336 193 398 q 184 417 177 435 q 170 453 166 466 l 160 434 q 141 319 141 230 q 141 106 182 10 l 178 3 q 172 -11 160 -22 l 144 -24 q 117 -24 97 -16 q 78 22 70 56 q 63 90 63 147 q 63 222 76 369 q 84 452 110 588 z"},",":{"x_min":0,"x_max":221,"ha":221,"o":"m 43 -140 l 54 -100 l 69 -48 l 70 -44 l 77 9 l 81 42 l 73 73 l 67 92 l 115 128 l 134 123 l 142 119 l 151 116 l 157 109 l 164 102 l 170 94 l 177 86 l 177 61 l 174 38 l 164 13 l 140 -47 l 137 -53 l 102 -122 l 83 -158 l 52 -158 z"},"n":{"x_min":0,"x_max":821,"ha":821,"o":"m 65 615 q 72 628 86 640 l 97 647 l 105 650 l 113 653 l 120 655 l 127 656 l 132 653 l 137 646 l 139 643 q 143 635 143 609 q 143 583 143 548 l 137 310 q 137 223 140 153 q 143 83 163 -1 l 146 -17 l 128 -31 q 115 -31 104 -27 l 97 -25 l 89 -16 l 74 10 l 67 95 l 72 306 l 72 405 q 72 426 72 436 q 72 532 65 615 z m 136 687 l 140 696 q 154 719 188 719 q 203 719 210 717 l 217 709 l 220 706 l 222 702 q 246 537 318 378 q 328 356 337 338 q 340 332 358 300 q 405 214 440 168 q 472 127 509 100 q 522 91 534 87 q 546 83 559 83 q 606 83 625 131 q 629 141 632 162 q 636 182 646 276 l 650 318 l 660 503 q 660 596 670 621 q 681 646 729 671 l 745 677 l 750 673 l 755 669 l 760 664 l 764 659 q 770 644 778 619 q 787 594 792 574 q 786 553 772 533 q 752 526 734 508 l 732 482 l 730 469 l 724 315 q 724 224 714 170 q 705 116 689 85 q 650 8 574 8 q 526 8 478 46 q 429 83 392 129 q 355 175 307 257 q 269 322 235 405 q 196 499 153 632 z"},"h":{"x_min":0,"x_max":699,"ha":699,"o":"m 15 232 l 24 246 q 41 267 63 282 l 102 268 l 106 340 q 106 434 115 508 q 129 597 137 648 l 163 662 l 190 672 l 203 660 l 202 640 l 201 627 l 200 619 l 184 492 q 177 434 176 423 q 172 382 172 338 l 169 247 q 251 227 328 218 q 404 208 505 208 l 556 208 q 546 310 544 333 q 539 402 539 497 l 538 556 q 538 598 538 634 q 537 671 537 701 q 537 753 542 765 q 546 777 568 786 l 574 789 l 577 790 l 583 787 l 586 787 l 590 781 l 591 777 l 592 773 l 593 770 l 594 732 l 594 700 l 597 611 q 597 472 611 347 q 618 287 641 144 l 645 125 l 649 104 l 647 97 q 640 72 630 62 q 619 53 596 49 l 589 49 l 579 51 l 572 85 l 566 120 l 561 146 l 557 173 l 511 172 l 448 171 q 397 171 308 174 q 218 178 173 178 l 175 163 q 185 87 247 46 l 258 40 l 262 30 l 258 16 l 247 9 q 229 -2 219 -6 q 209 -11 203 -10 l 199 -10 l 196 -8 l 187 -3 q 141 23 121 61 q 101 99 101 168 l 100 186 l 84 189 l 68 192 l 51 195 l 33 199 l 19 205 l 16 208 l 15 213 l 14 219 z"},"z":{"x_min":0,"x_max":758,"ha":758,"o":"m 54 631 q 128 661 215 681 q 302 701 418 714 q 483 720 530 722 q 576 725 613 725 q 673 725 710 694 q 744 666 744 622 q 744 609 739 591 q 728 558 706 528 q 683 499 624 441 q 581 398 489 319 q 456 291 421 264 q 377 230 288 165 l 189 89 l 181 82 l 167 70 q 250 70 289 74 q 328 79 399 94 q 447 104 478 112 q 491 115 518 123 l 532 128 q 546 128 558 110 q 563 102 563 91 q 563 83 558 71 l 552 63 q 515 51 487 44 q 459 36 428 29 q 285 -2 215 -2 l 151 -2 q 118 -2 107 2 q 71 15 71 40 q 71 48 74 59 l 77 68 l 85 76 l 93 84 l 141 125 l 148 130 l 256 205 q 286 226 320 252 q 358 282 403 319 l 458 367 q 536 436 582 488 q 621 531 634 558 q 646 586 646 610 q 646 635 632 650 q 619 665 595 667 q 551 667 524 666 q 497 664 433 654 q 272 630 146 571 l 128 562 l 114 555 l 100 552 l 87 550 l 72 547 l 57 545 q 42 543 36 553 q 29 563 29 570 q 29 581 39 607 q 41 611 43 616 q 46 622 54 631 z"},"B":{"x_min":0,"x_max":725,"ha":725,"o":"m 65 623 l 71 631 l 76 638 l 81 643 l 85 647 l 102 649 l 109 648 l 116 647 q 142 555 150 499 q 158 443 158 387 l 160 361 l 161 338 l 167 356 l 181 400 q 198 452 214 492 q 229 533 239 555 q 256 591 273 619 q 287 642 303 664 q 340 711 387 736 q 434 760 482 760 q 577 760 634 679 q 668 630 668 575 q 668 562 668 549 q 665 536 664 530 q 659 499 642 465 q 624 431 592 394 l 569 371 q 556 358 548 351 q 539 344 530 337 q 521 330 521 323 q 521 314 547 268 l 594 202 l 607 185 l 630 154 l 648 129 q 682 81 682 47 q 682 23 666 -2 l 660 -10 l 658 -13 l 642 -22 l 634 -23 l 626 -23 q 621 -23 614 -24 q 607 -25 597 -24 q 573 -24 556 -20 q 538 -16 525 -9 l 520 -6 l 515 -2 l 515 6 l 516 15 l 517 24 l 518 33 l 538 55 l 578 55 l 581 58 q 593 72 593 79 q 593 91 565 134 l 531 186 l 523 199 l 508 219 l 469 271 l 456 290 q 438 319 438 330 q 438 338 446 346 l 452 353 l 462 363 l 479 380 l 512 418 q 543 457 556 482 q 570 506 574 527 q 579 548 579 551 q 580 558 580 570 q 580 607 555 638 q 522 682 466 682 q 427 682 389 658 q 351 634 320 582 q 288 531 258 460 q 227 389 194 244 q 183 197 178 157 q 172 117 172 69 l 171 8 l 164 4 l 158 0 l 151 -5 l 144 -11 l 123 -6 l 115 -3 l 107 0 q 100 4 100 9 l 99 14 l 100 39 l 101 55 l 100 135 q 100 294 91 406 q 82 518 65 623 z"},"K":{"x_min":0,"x_max":799,"ha":799,"o":"m 143 467 l 139 556 l 128 577 l 124 585 l 121 594 l 123 617 l 144 647 q 159 653 168 655 q 176 657 189 657 q 200 655 205 649 l 219 581 l 220 520 l 249 540 q 366 619 460 662 q 554 706 654 728 l 703 712 q 704 706 704 693 q 704 685 704 677 q 702 665 702 660 l 684 641 q 677 642 663 642 q 597 642 507 608 q 403 569 258 480 l 221 456 l 221 312 l 221 252 l 220 193 l 244 181 l 268 170 q 357 129 442 105 q 526 81 587 71 q 648 61 706 61 q 734 61 761 64 l 781 54 l 792 18 l 739 -20 l 722 -20 l 708 -20 q 677 -20 643 -16 q 609 -11 553 -1 q 488 12 418 36 q 348 59 278 92 l 220 121 l 221 106 l 221 65 l 221 25 l 172 4 q 154 12 147 28 l 143 39 q 152 60 156 81 q 160 102 160 136 l 158 164 l 132 180 q 119 189 107 198 q 90 211 76 224 q 22 275 22 320 q 22 382 126 455 z m 134 392 l 118 379 q 86 347 86 320 q 86 289 131 253 l 147 240 l 154 235 l 152 276 l 150 316 l 148 358 l 146 401 l 142 398 z"},"R":{"x_min":0,"x_max":813,"ha":813,"o":"m 68 532 q 81 547 100 553 l 113 555 l 113 560 l 114 565 l 116 577 q 125 614 134 629 q 144 644 166 658 l 185 671 l 199 679 q 276 724 340 746 q 413 771 480 771 q 498 771 516 771 q 534 771 551 772 q 566 772 577 772 q 588 772 609 768 q 674 758 710 722 q 747 685 747 632 q 747 587 721 541 q 686 479 622 422 q 552 359 436 292 l 407 275 l 399 271 l 387 266 q 412 261 442 250 q 471 239 500 222 q 528 205 591 157 l 611 145 q 658 122 690 122 q 724 122 740 146 q 751 155 766 164 q 780 172 794 179 l 810 172 q 826 151 826 127 l 824 106 q 781 49 703 49 q 668 49 630 62 q 593 74 551 100 l 496 135 q 421 183 370 199 q 320 215 254 215 l 234 214 l 222 217 q 207 222 197 238 q 198 248 202 261 q 206 274 209 284 l 218 290 l 222 292 l 226 294 l 234 295 l 241 295 q 257 298 270 301 q 282 304 310 313 q 339 322 348 326 q 356 330 378 340 q 494 393 561 456 q 622 514 641 577 q 647 598 647 618 q 647 661 615 685 q 583 709 516 709 q 496 709 470 706 q 443 704 395 689 q 312 662 270 641 q 229 620 195 590 l 193 578 l 186 544 q 167 450 161 382 l 159 351 l 156 309 q 152 227 152 197 q 152 160 153 130 q 154 99 157 86 l 158 73 l 164 40 l 166 -18 l 167 -46 l 149 -57 l 136 -57 l 123 -57 l 111 -57 l 99 -56 l 94 -53 l 89 -50 l 85 -47 l 81 -44 q 72 44 68 152 q 65 261 65 417 l 67 479 z"},"T":{"x_min":0,"x_max":686,"ha":686,"o":"m 0 653 q 3 667 8 678 q 14 688 23 697 q 34 705 47 706 l 99 695 q 300 655 430 655 q 548 655 659 687 l 663 685 l 667 684 l 671 682 l 675 680 l 678 673 l 680 666 l 683 655 l 686 645 l 678 634 l 665 629 l 653 623 l 606 607 l 557 607 l 532 603 l 510 600 q 456 593 436 591 q 417 589 390 589 l 371 588 l 356 587 q 333 480 324 416 q 315 353 306 287 q 298 221 298 194 q 298 176 299 167 q 299 148 302 132 q 305 115 311 97 l 313 91 l 316 84 l 324 77 l 332 70 l 339 64 l 346 58 l 349 43 l 349 37 l 349 31 l 341 20 l 333 8 l 325 -3 l 317 -15 q 293 -15 275 -10 l 261 9 q 216 76 216 127 q 216 153 222 197 l 233 285 l 235 297 q 246 375 260 444 q 273 514 292 585 l 269 587 l 249 589 l 201 595 q 135 604 96 612 q 56 619 32 626 l 24 628 l 12 633 l 8 638 l 5 643 l 3 648 z"},"P":{"x_min":0,"x_max":664,"ha":664,"o":"m 7 611 l 27 665 l 38 668 l 48 671 q 89 682 126 688 q 163 694 203 694 q 237 694 273 694 q 309 693 356 688 q 402 682 446 672 q 491 661 534 644 q 576 627 600 614 q 624 602 642 586 q 678 556 678 522 q 678 478 618 430 q 557 381 482 348 q 406 315 273 283 l 242 275 l 241 256 l 239 227 q 239 201 238 178 q 238 155 238 135 q 238 92 244 47 l 247 31 l 249 18 l 226 -8 q 220 -9 214 -11 q 208 -12 199 -12 l 192 -12 l 184 -12 l 167 7 l 168 60 l 168 113 l 169 187 l 170 261 l 156 259 l 143 257 l 127 254 l 111 251 l 97 254 l 93 257 l 70 287 l 80 311 l 83 316 l 86 322 l 96 328 l 117 330 l 137 331 l 154 333 l 171 335 l 172 360 l 173 381 l 173 401 l 173 427 l 173 442 l 173 461 q 171 472 167 482 l 163 491 l 165 514 l 170 520 l 180 526 l 189 532 l 199 539 l 209 545 l 241 536 l 251 482 l 249 449 l 248 416 l 246 380 l 245 344 l 255 345 l 262 346 l 307 354 q 405 376 460 402 q 514 428 562 472 q 596 503 596 528 q 596 553 561 574 q 517 601 456 616 q 395 631 317 631 q 246 631 174 617 q 101 603 53 582 l 27 586 z"},"t":{"x_min":0,"x_max":688,"ha":688,"o":"m 28 649 l 34 654 l 45 658 l 57 653 q 89 636 136 628 q 184 619 254 619 q 287 619 336 622 q 385 625 442 630 l 559 642 q 622 654 647 658 q 672 661 678 660 q 688 658 688 647 q 688 641 682 635 q 676 629 657 615 l 627 592 q 580 566 542 558 q 481 545 345 545 l 314 544 l 301 512 l 282 464 l 255 395 q 218 296 200 228 q 183 159 183 117 q 183 77 198 58 q 212 39 240 35 l 246 34 l 255 33 l 258 32 q 264 30 269 22 q 271 18 280 0 q 282 -8 282 -16 q 282 -23 281 -26 q 274 -33 265 -38 q 256 -42 234 -49 l 208 -58 q 187 -58 166 -45 q 134 -27 122 9 q 111 45 111 124 q 111 215 186 397 q 206 449 235 505 l 253 540 l 239 541 l 171 543 q 123 543 89 548 q 55 552 10 570 l 7 575 l 3 582 l 0 591 l 10 613 l 14 621 l 20 634 l 24 642 z"},"M":{"x_min":0,"x_max":801,"ha":801,"o":"m 101 20 l 107 113 l 112 207 l 116 296 l 120 386 q 138 402 159 408 l 173 388 l 173 340 l 174 212 q 174 186 174 178 q 175 169 185 93 l 188 74 l 189 67 l 189 58 q 189 44 186 32 q 183 20 178 10 l 144 -15 l 110 0 z m -14 683 l -2 700 l 24 725 l 61 718 l 102 657 l 102 651 l 102 644 q 105 619 133 586 q 136 583 219 492 q 292 412 368 412 q 420 412 504 447 q 561 471 615 505 l 632 516 l 650 528 l 650 550 l 696 583 l 736 534 l 735 518 l 732 502 l 729 485 q 720 440 717 390 q 714 341 714 274 q 714 223 717 194 l 718 179 l 729 93 l 736 36 l 723 -1 l 676 -16 l 667 -13 l 645 18 l 645 43 q 649 57 650 73 q 651 89 651 121 l 649 176 l 648 193 l 644 264 l 644 275 q 644 297 644 321 q 644 345 645 371 l 645 377 l 649 436 l 650 447 l 652 479 l 641 472 l 626 462 l 587 435 q 515 387 460 364 q 405 341 358 341 q 300 341 246 374 q 191 408 118 484 q 107 494 100 502 q 88 516 82 523 q 29 583 -11 648 z"},"g":{"x_min":0,"x_max":797,"ha":797,"o":"m 745 653 q 741 635 726 617 q 690 599 656 589 l 643 595 l 638 599 l 633 602 l 623 616 l 607 639 l 604 644 q 593 658 578 658 q 559 658 499 633 q 447 611 381 569 q 326 533 281 488 q 236 443 196 382 l 166 333 q 138 282 124 250 q 110 217 104 192 q 98 166 98 145 q 98 95 130 66 q 163 36 217 36 q 276 36 362 68 q 447 101 560 169 q 622 207 653 229 q 678 247 689 259 q 696 267 696 279 q 696 296 683 304 q 670 311 659 314 q 648 317 624 317 q 613 318 607 318 q 595 318 564 317 q 533 316 517 316 l 473 313 q 411 307 393 301 q 375 295 352 272 l 339 258 l 334 254 q 329 248 316 239 l 298 229 l 285 236 l 272 243 l 260 250 l 248 257 q 242 271 244 289 l 250 299 q 262 319 270 330 q 277 340 283 344 l 286 346 l 292 349 l 346 359 q 426 373 474 380 q 521 387 553 387 q 656 391 681 391 q 692 391 712 388 q 731 386 750 366 q 768 345 768 313 q 768 294 760 271 q 752 248 722 219 q 686 185 607 131 q 488 51 389 13 q 298 -22 221 -22 q 136 -22 86 26 q 35 75 35 155 q 35 173 40 202 q 44 230 56 262 q 68 295 96 351 q 106 373 115 388 q 119 396 137 424 q 225 559 345 644 q 504 754 610 754 q 682 754 711 730 q 734 710 742 680 z"},"j":{"x_min":0,"x_max":529,"ha":529,"o":"m 36 185 l 42 195 l 48 205 l 55 216 l 63 227 l 69 229 l 75 231 l 82 233 l 88 234 q 115 220 142 196 l 157 182 q 153 167 162 155 q 172 143 206 119 l 253 88 q 297 60 320 47 q 342 34 351 34 q 365 34 383 76 q 391 93 393 139 q 395 185 395 277 q 395 331 382 407 q 369 483 347 577 l 327 652 l 287 647 q 200 635 163 627 q 126 619 91 604 q 86 605 78 608 q 74 609 65 614 l 49 624 l 47 635 l 44 666 l 47 669 l 49 672 l 52 676 l 55 679 l 66 682 l 79 686 q 153 705 220 716 q 286 727 395 737 l 454 742 q 471 731 478 716 q 486 700 486 667 l 486 657 q 472 641 455 630 q 431 639 417 655 l 392 655 l 411 590 q 440 484 453 404 q 466 323 466 256 q 466 190 452 137 q 431 52 410 17 q 388 -18 357 -25 q 351 -27 339 -27 q 324 -27 306 -18 q 287 -9 252 15 l 167 70 l 93 114 l 72 126 l 49 139 l 41 162 z"},"i":{"x_min":0,"x_max":240,"ha":240,"o":"m 83 62 l 86 79 l 87 88 q 89 105 89 195 l 88 344 l 89 372 l 89 407 l 91 414 l 93 421 l 102 442 l 127 455 l 152 463 l 157 462 l 162 457 l 166 451 l 171 444 l 176 436 l 171 351 q 171 312 170 269 q 170 226 169 179 q 169 151 170 132 q 171 112 175 88 l 186 29 l 179 21 l 172 12 l 167 4 l 161 -5 l 152 -7 l 143 -9 l 135 -10 l 127 -11 l 111 -6 l 103 6 q 83 36 83 62 z m 108 736 l 111 741 q 118 754 135 754 q 154 754 183 734 q 214 709 223 672 q 227 659 227 641 q 227 597 198 566 q 169 535 126 535 q 94 535 69 550 q 44 566 31 594 q 22 615 22 637 q 22 675 46 704 q 70 732 108 736 z"},"y":{"x_min":0,"x_max":724,"ha":724,"o":"m 0 650 l 6 658 q 25 680 47 683 l 54 678 l 62 674 l 69 670 l 75 665 l 80 659 l 84 653 l 86 648 l 89 643 l 91 624 q 106 478 184 404 q 256 335 372 335 l 416 341 l 442 373 l 473 409 q 513 456 541 487 q 574 523 610 560 l 673 620 l 686 633 l 688 635 l 700 638 l 704 639 l 714 634 l 717 630 l 717 614 q 717 581 713 564 q 709 547 690 506 l 665 452 q 646 411 633 398 q 620 385 547 333 q 487 291 437 277 l 427 262 q 409 234 398 210 q 387 186 383 170 q 379 155 379 140 q 379 106 398 87 q 417 68 450 68 l 458 69 l 467 65 l 475 46 q 465 17 448 -6 l 432 -12 l 426 -12 l 412 -8 q 354 13 330 38 q 306 63 306 104 q 306 137 325 194 q 339 233 365 270 q 310 270 262 286 q 165 317 108 376 q 50 434 19 537 q 6 583 2 627 z"},".":{"x_min":0,"x_max":249,"ha":249,"o":"m 43 63 q 43 99 66 124 q 89 149 125 149 q 159 149 183 126 q 207 102 207 68 q 207 36 184 13 q 161 -13 128 -13 q 93 -13 68 8 q 43 30 43 63 z"},"p":{"x_min":0,"x_max":793,"ha":793,"o":"m 14 543 l 19 562 l 22 570 l 26 578 l 30 581 l 80 598 l 268 656 l 340 674 q 428 694 488 704 q 548 713 588 713 q 689 713 727 700 q 792 679 792 613 q 792 569 757 516 q 734 480 682 439 q 619 389 495 313 q 407 258 273 192 l 230 171 l 190 151 l 194 131 l 199 110 q 205 87 208 74 q 212 60 219 40 q 219 28 216 18 q 212 8 207 -1 q 192 -15 171 -21 q 152 -21 134 -11 q 121 48 116 99 q 110 150 110 218 q 110 327 131 497 l 136 536 l 100 524 l 84 517 l 69 511 l 58 510 l 50 512 l 42 514 l 33 517 l 25 521 q 16 529 14 543 z m 183 211 l 213 225 l 250 243 q 318 276 371 306 q 424 335 460 359 q 580 436 624 476 q 663 511 687 562 q 697 582 697 600 q 697 639 650 652 q 633 655 607 655 q 593 655 584 655 q 560 655 506 644 q 453 632 338 600 q 280 585 201 558 l 196 519 q 191 480 186 416 q 182 351 182 296 q 182 275 182 254 q 182 232 183 211 z"},"X":{"x_min":0,"x_max":714,"ha":714,"o":"m 7 629 l 8 638 l 9 648 l 11 658 l 12 669 l 42 680 l 53 684 l 64 689 l 79 684 l 93 667 l 120 633 q 185 550 234 494 q 282 439 325 395 l 337 383 l 352 368 l 382 392 l 398 405 l 452 448 l 492 480 l 593 558 l 608 569 l 625 581 l 639 576 l 644 573 l 649 570 l 651 563 l 653 556 l 654 550 l 655 544 l 620 516 l 514 434 q 473 401 425 358 l 409 343 l 392 326 l 425 291 l 451 265 l 530 184 q 590 123 622 96 q 655 68 703 36 q 707 27 707 14 l 706 5 l 694 -2 l 689 -3 l 685 -5 q 625 27 580 63 q 535 99 425 206 l 388 242 l 346 284 l 332 270 l 319 257 l 276 213 q 231 163 204 127 q 176 91 157 58 l 150 46 l 142 30 l 137 7 l 131 -4 l 121 -8 q 94 -18 78 -18 q 68 -18 53 -13 q 44 -3 40 6 q 37 14 37 31 l 36 43 l 36 50 q 92 116 153 179 q 218 246 283 305 l 294 315 l 304 324 l 282 347 l 186 447 l 177 456 l 91 542 l 84 550 l 61 561 l 46 578 q 37 588 31 596 q 29 599 7 629 z"},"*":{"x_min":0,"x_max":457,"ha":457,"o":"m 39 582 l 73 621 l 76 623 q 81 627 88 627 q 95 627 104 620 q 114 614 133 597 l 145 587 l 164 570 l 172 563 l 190 548 l 189 567 q 189 585 189 602 q 189 619 192 636 l 193 646 l 195 658 l 201 663 l 207 668 l 215 673 l 222 678 l 233 680 l 243 682 l 255 684 l 266 686 l 270 685 l 274 683 q 288 676 289 662 l 288 656 l 285 647 l 282 637 q 267 594 261 547 l 274 553 l 288 561 q 324 580 359 594 l 378 602 l 398 609 l 418 596 l 421 578 l 389 559 l 374 551 l 306 512 l 295 506 l 288 501 l 262 484 l 296 456 l 330 427 l 403 364 l 405 351 l 389 327 q 381 324 372 327 q 340 359 304 389 l 246 435 l 244 403 l 242 371 l 238 287 q 235 277 228 277 q 197 277 196 288 l 194 366 l 193 399 l 191 431 l 175 417 q 150 394 138 382 q 127 371 112 354 l 99 338 q 88 326 75 326 q 71 326 59 328 l 50 332 q 39 351 39 372 q 39 386 43 397 q 66 420 91 439 q 103 448 141 475 l 162 489 l 151 497 l 143 502 q 141 503 124 511 q 97 524 96 524 l 74 533 l 70 535 l 37 566 q 33 575 39 582 z"},"Y":{"x_min":0,"x_max":546,"ha":546,"o":"m 9 673 q 26 698 51 714 l 67 708 q 87 701 108 688 l 110 674 l 113 659 l 114 647 l 116 635 l 113 623 l 110 610 l 107 599 l 104 588 l 106 568 l 108 550 q 116 495 132 440 q 147 386 161 357 q 190 300 241 300 q 278 300 308 333 l 328 357 q 355 396 368 426 q 382 455 410 544 q 418 568 420 578 q 423 587 429 612 q 436 622 446 628 l 454 632 l 467 633 l 480 633 l 490 633 l 500 633 l 524 594 l 509 560 q 473 468 460 394 q 446 320 446 223 q 446 189 456 116 l 461 80 l 465 54 l 466 44 l 471 -14 l 473 -42 l 475 -68 l 476 -76 l 478 -102 q 469 -122 449 -133 q 443 -134 430 -134 q 413 -134 393 -129 l 387 -123 l 382 -116 l 378 -111 l 374 -105 l 374 -91 q 377 -69 385 -53 q 393 -51 400 -46 l 403 -44 l 406 -41 l 414 -18 l 411 -5 l 409 5 l 406 19 l 399 53 q 397 59 395 74 q 389 109 389 112 l 386 143 l 383 174 l 381 201 l 379 226 q 379 259 380 280 q 382 300 387 336 l 392 369 l 393 378 l 384 362 q 366 330 348 310 q 331 289 310 274 q 263 242 224 242 q 159 242 97 346 q 88 362 76 387 q 65 412 52 446 l 39 482 q 22 532 14 568 q 7 605 7 638 q 7 646 7 655 q 9 667 9 673 z"},"c":{"x_min":0,"x_max":725,"ha":725,"o":"m 660 679 q 689 636 689 582 q 689 571 688 566 l 681 555 q 653 544 625 544 l 605 544 q 584 553 577 571 l 573 580 l 570 589 l 558 611 q 479 603 410 576 q 288 528 212 450 q 140 376 123 292 q 120 275 118 260 q 116 244 116 230 q 116 56 372 56 q 398 56 430 62 q 461 67 501 79 l 576 101 l 602 108 l 615 103 l 629 101 l 634 76 l 619 46 l 610 43 l 603 40 q 586 34 570 28 q 553 23 527 17 q 463 0 404 -8 q 344 -17 296 -17 q 267 -17 244 -14 q 149 -3 93 58 q 37 120 37 210 q 37 279 70 348 q 114 441 184 512 q 255 584 353 633 q 418 665 475 681 q 532 697 576 697 q 626 697 660 679 z"},"!":{"x_min":0,"x_max":277,"ha":277,"o":"m 65 53 q 65 88 87 114 q 109 139 144 139 q 177 139 199 120 q 227 96 227 58 q 227 29 208 7 q 184 -22 149 -22 q 115 -22 90 0 q 65 21 65 53 z m 110 608 l 108 612 l 106 617 l 104 622 l 102 627 q 102 649 105 666 q 108 682 116 714 l 145 735 l 152 734 l 201 698 l 187 639 q 169 561 164 467 q 158 373 158 244 l 160 208 l 127 182 l 114 192 l 110 197 l 107 201 l 104 266 q 104 356 103 409 q 102 462 101 509 q 101 531 102 550 q 103 568 106 586 l 107 594 z"},"/":{"x_min":0,"x_max":429,"ha":429,"o":"m 14 22 l 15 34 l 17 43 q 21 62 26 81 q 32 100 44 127 l 55 151 l 56 154 l 94 219 l 158 340 l 200 419 l 229 473 l 270 560 q 292 607 300 630 q 308 653 319 694 l 325 715 l 333 750 l 336 759 l 345 766 l 374 781 l 412 747 q 414 733 414 727 q 414 714 410 699 q 407 684 394 649 q 386 626 361 577 q 330 517 286 443 l 210 311 l 197 286 l 139 178 l 122 146 l 102 111 l 83 71 q 75 50 70 27 l 69 23 l 68 17 l 37 5 z"},"6":{"x_min":0,"x_max":485,"ha":485,"o":"m 381 676 l 405 676 q 409 673 411 672 q 417 668 421 662 l 425 657 l 429 652 q 429 645 428 637 q 426 629 425 625 l 423 617 l 364 580 l 355 580 l 345 579 l 334 578 l 323 577 l 298 559 q 184 466 150 318 q 133 244 133 195 q 133 176 136 158 q 139 139 144 122 q 155 89 175 72 q 195 55 223 55 q 252 55 279 75 q 323 107 348 151 q 366 184 366 210 q 366 221 363 233 q 357 255 335 255 q 328 255 324 253 q 308 249 283 231 q 270 222 244 196 l 239 192 q 234 188 226 188 q 213 188 206 197 q 200 206 200 216 q 200 234 216 256 q 231 279 268 304 l 294 320 q 307 327 320 330 q 333 333 346 333 q 374 333 394 318 q 414 303 419 284 q 424 265 424 245 q 424 223 419 200 q 407 142 369 87 q 356 68 354 65 q 350 60 335 46 q 305 18 274 4 q 242 -9 210 -9 q 171 -9 139 11 q 107 31 89 67 q 56 132 56 214 q 56 232 56 250 q 59 267 60 278 q 62 290 64 300 q 66 311 71 331 q 84 383 107 428 q 130 474 165 516 q 219 580 271 618 q 323 656 381 676 z"},"r":{"x_min":0,"x_max":857,"ha":857,"o":"m 65 5 l 66 41 l 66 63 l 66 102 l 66 237 q 69 297 71 344 q 73 391 73 452 l 75 499 l 77 538 l 99 557 q 112 560 126 561 q 139 562 156 562 q 197 633 275 676 q 360 723 488 735 q 498 736 508 736 q 517 737 531 737 q 582 737 632 725 q 682 713 712 676 q 743 639 743 586 q 743 555 732 524 q 722 493 699 458 q 666 410 601 363 q 526 309 415 258 q 347 228 278 204 l 219 185 q 243 166 276 154 q 310 143 433 109 q 517 86 585 74 q 713 50 785 50 q 827 50 870 58 l 876 55 l 882 45 q 890 32 893 12 l 887 6 q 872 -10 861 -14 q 850 -18 824 -18 q 803 -18 784 -18 q 764 -17 746 -17 q 736 -17 730 -17 q 675 -17 589 2 q 520 17 392 55 q 288 86 234 108 q 179 130 137 156 l 143 75 l 148 7 q 147 4 144 1 q 137 -5 130 -10 q 113 -22 104 -22 q 96 -22 73 -7 q 68 -4 65 5 z m 179 230 q 257 257 304 276 q 351 294 388 313 q 493 365 559 414 q 615 455 638 492 q 651 511 658 534 q 665 558 665 575 q 665 609 645 634 q 625 659 594 666 q 564 673 530 673 q 478 673 410 657 q 279 627 211 529 q 138 425 138 246 l 136 204 q 147 215 165 224 z"},"2":{"x_min":0,"x_max":487,"ha":487,"o":"m 185 411 l 167 400 l 119 416 l 118 427 l 117 437 l 117 448 l 117 459 l 130 472 q 154 493 179 504 l 229 503 q 351 503 407 469 q 463 435 463 371 q 463 364 462 356 q 461 348 461 344 q 455 301 414 258 q 368 210 258 140 l 224 119 l 189 98 l 145 72 l 123 59 l 104 48 q 129 44 174 43 q 220 42 277 42 l 321 45 l 328 45 l 337 46 l 362 65 l 431 65 q 441 46 441 24 q 441 15 440 10 l 436 5 l 433 1 l 417 -14 l 408 -17 l 402 -18 q 387 -22 350 -24 q 314 -26 280 -26 l 220 -26 l 210 -26 l 124 -22 q 95 -22 77 -20 q 59 -17 42 -11 q 6 0 6 36 q 6 48 12 59 q 24 79 41 92 q 58 105 113 135 l 167 163 l 189 176 q 242 204 267 219 q 292 234 310 248 q 348 278 364 299 q 381 320 382 332 q 384 344 384 354 q 384 414 298 414 l 216 413 l 196 412 z"},"9":{"x_min":0,"x_max":485,"ha":485,"o":"m 403 501 q 409 494 412 482 l 414 474 q 408 460 394 451 l 385 446 l 371 445 l 367 447 l 363 448 q 339 456 320 456 q 282 456 253 440 q 224 423 192 380 q 187 374 181 364 q 175 353 172 346 q 160 322 156 306 q 153 289 153 269 q 153 252 166 241 q 179 230 198 230 q 212 230 225 235 q 250 244 275 270 q 304 300 347 360 l 383 411 l 387 413 q 393 416 398 416 q 407 416 414 409 q 422 402 422 390 q 422 378 413 330 q 408 308 404 278 q 401 247 390 141 l 387 101 l 379 14 q 376 -15 373 -34 q 370 -52 365 -66 q 344 -114 310 -114 q 299 -114 280 -107 l 258 -97 q 237 -88 230 -88 q 227 -88 215 -90 l 204 -91 q 178 -82 157 -58 q 160 -44 162 -38 q 168 -26 170 -20 l 175 -9 l 184 -3 q 198 -3 206 -4 q 213 -6 229 -12 l 238 -18 l 252 -26 l 259 -30 q 289 -44 299 -44 q 310 -44 315 -32 q 320 -19 326 17 l 330 52 l 334 99 l 337 140 l 338 145 l 348 233 l 354 288 l 342 270 q 318 234 298 212 q 278 190 259 175 q 209 138 164 138 q 129 138 104 160 q 79 182 68 223 q 62 246 62 267 q 62 311 93 369 q 114 407 150 438 q 186 470 236 491 q 293 515 337 515 q 372 515 403 501 z"}," ":{"x_min":0,"x_max":290,"ha":290,"o":""},"I":{"x_min":0,"x_max":248,"ha":248,"o":"m 89 575 l 91 582 l 104 589 l 116 596 l 129 603 l 141 609 l 156 608 l 172 574 l 171 540 l 168 474 l 165 420 l 157 292 l 150 176 l 148 113 l 147 108 l 146 101 l 157 89 l 167 76 l 176 64 l 185 52 l 189 36 q 183 29 173 18 q 163 8 154 2 l 139 -7 l 109 -7 l 105 1 l 97 16 q 83 42 77 61 q 71 80 71 98 q 71 111 72 119 l 77 162 l 79 177 q 83 209 86 240 q 90 271 90 294 q 90 350 92 421 q 95 492 95 494 q 95 506 95 518 q 93 534 93 541 l 91 555 z"},"H":{"x_min":0,"x_max":680,"ha":680,"o":"m 7 224 l 10 236 l 13 248 l 16 258 l 19 268 l 34 281 l 40 285 l 47 289 l 58 291 l 70 293 l 82 295 l 93 297 l 95 386 l 95 451 l 95 547 l 95 581 l 95 591 l 96 609 q 96 620 91 644 l 89 653 l 88 660 l 92 668 l 108 686 l 123 691 l 138 697 l 149 701 l 160 706 l 188 658 q 176 609 168 566 q 161 523 161 479 l 161 473 l 160 342 l 160 337 l 159 307 l 178 310 l 212 314 q 278 322 334 324 q 389 327 459 327 q 480 327 491 327 l 512 326 l 533 325 l 533 379 l 533 412 l 536 565 q 536 580 536 587 q 536 598 536 602 q 536 630 534 643 q 532 656 530 665 l 529 669 l 528 673 l 534 678 l 539 682 l 559 696 l 589 698 l 596 698 l 604 698 l 615 672 l 613 600 l 611 541 l 609 501 l 602 381 l 595 162 l 593 126 l 591 82 q 590 74 592 55 q 593 36 593 22 l 594 10 l 594 2 l 591 -1 l 587 -4 q 581 -10 572 -13 q 558 -13 543 -7 l 538 -5 l 528 10 l 529 86 l 530 161 l 531 228 l 532 294 l 521 284 l 505 283 l 491 282 l 434 278 q 339 278 268 264 q 240 258 160 235 l 160 135 l 161 20 l 158 10 l 142 2 l 135 -2 l 128 -7 q 117 -7 110 1 l 106 8 l 104 12 l 103 21 l 100 35 l 99 38 q 98 45 95 74 q 92 103 92 130 q 92 151 92 174 q 92 196 93 219 q 68 212 47 198 z"},"4":{"x_min":0,"x_max":485,"ha":485,"o":"m 222 525 q 255 520 278 496 l 275 481 q 269 456 255 434 l 251 431 l 244 427 q 218 411 202 392 q 187 373 173 340 l 154 295 l 146 276 l 133 240 q 127 223 118 194 q 113 177 111 167 q 109 157 108 146 q 106 134 106 123 q 106 97 118 86 q 131 75 162 72 l 218 67 l 297 65 l 308 64 l 320 64 l 327 100 q 336 150 340 178 q 343 205 343 233 q 350 237 364 243 q 378 249 387 252 q 402 249 414 240 l 419 236 l 414 217 l 411 201 q 402 161 395 107 l 391 83 l 389 67 l 404 69 l 419 70 l 433 70 l 446 71 l 464 55 l 466 49 q 468 39 468 35 q 468 4 417 4 l 381 3 l 381 -14 l 380 -32 l 379 -55 l 379 -78 q 363 -95 337 -100 q 319 -102 309 -101 q 299 -98 292 -91 l 288 -87 q 295 -63 300 -42 q 305 -20 308 5 l 295 5 l 288 6 l 276 6 l 206 10 l 197 10 l 132 15 q 19 15 19 112 q 19 152 38 205 l 81 327 l 111 398 q 143 470 160 490 q 176 509 214 522 z"},"D":{"x_min":0,"x_max":822,"ha":822,"o":"m 0 645 l 18 694 l 27 700 q 40 708 60 715 q 70 716 75 715 q 82 714 93 708 l 111 700 l 119 695 l 290 614 l 329 594 q 473 515 566 449 q 652 387 703 331 q 746 283 766 248 q 786 214 786 185 q 786 137 711 72 q 651 20 560 -18 q 470 -55 354 -71 q 341 -72 330 -74 q 318 -75 304 -75 q 286 -75 270 -75 q 254 -75 240 -76 q 219 -76 202 -73 q 134 -62 95 -34 l 92 -25 l 89 -16 l 87 -9 l 85 -2 l 104 58 q 129 138 140 179 q 151 220 159 264 l 162 278 l 165 295 l 159 310 l 155 353 q 184 361 211 377 l 233 365 l 236 358 l 243 322 q 243 313 243 304 q 243 296 244 287 l 236 262 l 210 183 l 182 117 l 180 112 l 164 68 l 163 64 l 153 39 q 151 34 150 29 q 149 24 149 19 q 149 -10 207 -20 l 239 -24 q 288 -24 354 -9 q 440 11 536 52 q 602 80 649 111 l 659 118 l 686 138 q 727 167 727 195 q 727 227 659 298 q 611 348 533 399 q 445 456 321 515 q 233 556 107 605 l 73 617 q 58 622 52 622 q 44 622 36 616 q 28 617 25 618 q 18 622 15 623 l 8 627 z"},"0":{"x_min":0,"x_max":486,"ha":486,"o":"m 281 480 l 299 476 q 311 466 309 452 l 316 453 l 322 454 q 326 455 336 455 q 363 455 390 440 q 416 426 434 392 q 451 358 451 309 q 451 273 440 232 q 429 191 404 144 q 354 50 269 8 q 231 -11 191 -11 q 139 -11 100 22 q 60 56 44 117 q 40 135 38 149 q 36 163 36 182 q 36 228 53 279 q 80 365 134 416 q 188 467 260 478 z m 180 348 q 160 321 137 255 q 125 223 122 210 q 118 198 116 183 q 113 168 113 156 q 113 144 113 138 q 113 112 118 89 q 124 66 144 50 q 163 34 188 34 q 202 34 218 42 q 235 51 250 64 q 264 78 288 108 q 311 138 327 183 q 343 228 348 262 q 353 297 353 343 l 351 362 q 345 398 320 398 q 313 398 306 394 q 300 391 294 391 q 284 391 278 404 l 277 409 l 276 412 l 283 428 q 269 428 257 422 q 245 416 219 393 q 198 374 180 348 z"},"F":{"x_min":0,"x_max":551,"ha":551,"o":"m 118 383 l 119 415 l 121 448 l 123 483 l 125 517 l 145 530 l 154 531 l 193 521 l 201 511 l 200 481 l 200 451 l 199 423 l 199 395 l 228 400 l 253 404 q 303 411 318 413 q 359 418 392 418 l 424 420 l 450 422 l 471 403 l 472 399 l 471 386 q 461 340 420 340 q 415 340 401 342 l 386 346 l 380 348 l 369 348 l 364 348 q 324 348 240 330 l 194 319 l 190 263 l 190 153 l 190 139 l 190 98 l 204 91 q 206 87 208 78 q 209 70 209 59 q 209 45 208 38 q 207 31 201 20 l 166 -5 l 151 -4 q 129 -1 115 16 l 115 160 l 115 304 l 100 302 l 85 300 l 74 297 l 64 295 q 57 295 50 300 q 35 309 35 328 q 35 341 44 352 q 52 363 62 368 q 71 372 97 377 z m 538 716 l 563 698 l 565 689 l 564 680 q 560 644 538 637 l 519 641 l 502 645 l 486 649 q 415 649 356 643 q 296 637 197 618 q 129 605 57 584 l 20 592 l 17 600 q 15 605 14 612 q 13 620 13 625 q 13 658 62 670 l 112 681 l 119 683 q 207 701 293 708 q 379 716 500 716 z"},"`":{"x_min":0,"x_max":320,"ha":320,"o":"m 0 830 l 7 858 l 29 879 l 91 861 q 103 857 115 844 l 120 839 l 123 834 l 159 818 l 195 802 l 270 770 l 284 741 l 267 721 q 250 727 223 736 q 196 744 183 748 l 143 760 l 104 771 l 51 793 l 11 819 z"},"k":{"x_min":0,"x_max":748,"ha":748,"o":"m 47 685 q 66 711 97 732 q 136 724 146 671 l 149 644 l 149 636 l 147 584 l 145 549 q 145 345 147 237 q 149 129 169 17 l 166 3 l 158 -3 l 150 -9 l 141 -15 l 132 -21 l 121 -21 l 111 -16 l 102 -11 l 96 -8 l 91 -5 l 84 9 l 82 119 l 83 279 l 82 441 q 82 550 75 587 q 68 624 43 657 q 42 664 42 668 q 42 671 44 679 z m 222 390 l 274 418 q 449 515 538 586 q 617 649 653 713 q 667 720 684 723 l 695 723 l 714 710 l 731 694 l 733 689 l 733 683 l 734 677 l 734 670 l 722 655 l 713 643 q 655 572 561 508 q 457 436 299 365 l 243 340 l 273 322 l 331 287 q 434 225 496 198 q 581 160 630 143 q 671 129 691 129 l 710 129 l 714 129 q 719 130 725 122 q 731 115 731 102 q 732 88 711 56 l 704 47 l 699 43 l 696 42 q 687 39 676 39 q 649 39 602 59 q 556 79 444 140 l 377 179 q 341 201 313 218 q 279 239 265 249 q 199 292 181 307 q 159 325 159 341 q 159 345 163 359 q 174 393 205 393 q 209 393 217 391 z"},"u":{"x_min":0,"x_max":684,"ha":684,"o":"m 134 656 q 143 659 157 657 l 175 653 q 205 641 205 615 q 205 611 203 604 q 201 599 198 592 q 191 580 180 571 q 156 508 146 441 q 135 374 135 315 q 135 203 177 140 q 219 77 298 59 q 315 56 328 54 q 340 52 353 52 q 474 52 524 211 q 535 249 541 296 q 547 342 547 405 q 547 460 546 483 q 544 506 539 557 l 536 595 l 533 618 l 533 629 q 533 642 541 656 l 570 673 l 582 677 l 588 677 l 594 677 l 599 676 l 604 675 l 617 660 l 624 646 l 625 616 l 626 579 q 626 441 611 348 q 582 158 520 72 q 457 -13 349 -13 q 314 -13 273 -4 q 172 19 117 105 q 58 198 58 355 q 58 374 60 398 q 61 423 62 437 q 72 556 84 596 q 97 635 127 653 z"},"U":{"x_min":0,"x_max":774,"ha":774,"o":"m 168 656 l 186 661 q 204 663 212 663 q 218 663 226 662 q 235 661 239 661 q 251 655 251 640 q 251 634 250 624 q 248 614 247 606 l 245 593 l 239 588 l 235 584 q 221 569 207 546 q 193 524 179 496 q 160 460 137 386 q 120 331 113 292 q 106 252 106 217 q 106 205 106 196 q 106 186 111 151 q 123 66 188 66 q 220 66 267 92 q 300 110 338 150 q 382 195 439 274 l 483 336 l 492 351 l 571 473 l 591 504 q 618 544 635 568 q 657 600 665 600 q 675 595 685 590 l 690 587 l 692 581 l 689 575 q 702 571 709 562 q 716 554 716 543 q 706 487 696 427 q 686 367 686 294 q 686 243 684 216 q 681 188 678 160 q 678 117 672 101 q 667 85 653 85 q 649 85 641 87 l 636 89 l 633 90 l 627 96 l 622 102 l 616 109 l 611 116 q 610 128 610 138 q 609 148 609 161 q 609 179 610 226 q 611 272 611 297 l 614 358 l 617 416 l 617 421 l 618 447 l 610 434 l 595 408 q 556 340 525 294 q 494 247 462 205 q 407 137 354 87 q 306 42 267 21 q 213 -8 168 -8 q 123 -8 94 20 q 64 47 54 99 q 49 125 46 155 q 43 185 43 215 q 43 307 74 432 q 104 556 168 656 z"},"o":{"x_min":0,"x_max":883,"ha":883,"o":"m 573 692 l 576 681 l 579 669 l 581 660 l 582 651 q 597 650 612 648 q 626 645 641 640 q 739 612 794 546 q 850 479 850 390 q 850 317 808 242 q 763 163 686 106 q 601 42 509 10 q 417 -23 331 -23 q 279 -23 234 -11 q 142 12 88 80 q 35 148 35 238 q 35 281 48 324 q 62 368 89 409 q 132 474 194 530 q 237 568 279 596 q 321 623 366 643 q 446 679 489 696 q 532 712 545 712 q 558 712 570 697 z m 157 380 q 118 318 118 251 q 118 175 171 117 q 224 59 314 42 q 333 38 360 38 q 410 38 464 54 q 517 69 575 102 q 646 142 692 198 q 730 244 748 292 q 767 339 767 387 q 767 457 728 512 q 688 567 617 592 q 578 606 537 606 q 522 606 515 605 q 351 589 313 449 l 309 428 l 303 424 l 296 420 l 290 416 l 284 413 q 277 411 273 415 l 268 420 l 264 425 l 260 430 l 255 435 q 259 477 284 512 l 264 497 q 229 469 202 440 q 176 410 157 380 z"},"N":{"x_min":0,"x_max":771,"ha":771,"o":"m 51 29 l 84 178 q 107 284 118 311 q 128 338 148 338 q 157 338 162 334 l 165 327 l 169 319 l 179 301 l 171 244 q 160 175 150 126 q 141 76 137 53 l 132 5 l 94 -15 l 88 -14 q 65 -8 58 -2 q 50 5 50 20 l 50 25 z m 91 560 l 96 564 q 118 582 135 582 q 147 582 159 573 l 164 568 l 171 552 l 175 541 l 181 525 l 204 460 l 237 382 q 256 337 270 308 q 283 279 292 262 q 328 193 349 157 q 367 125 378 111 q 403 79 418 66 q 444 43 472 43 q 521 43 551 107 q 576 159 599 246 q 607 275 614 306 q 620 337 624 369 q 632 419 635 454 q 638 489 638 526 q 638 579 629 612 q 620 644 599 677 l 596 683 l 592 688 l 605 714 l 631 728 q 648 730 659 726 l 693 698 l 699 679 q 710 642 716 604 q 722 567 722 524 q 722 487 717 442 q 712 398 702 335 q 696 303 688 272 q 680 241 670 210 q 641 127 615 84 q 585 33 546 6 q 506 -22 464 -22 q 425 -22 388 -1 q 352 20 319 64 q 290 103 268 140 q 246 177 215 245 l 188 303 l 173 336 l 141 410 q 115 472 110 486 q 97 521 91 560 z"},"G":{"x_min":0,"x_max":788,"ha":788,"o":"m 759 660 l 757 619 l 730 581 l 720 570 l 714 566 l 707 561 l 702 559 l 697 556 l 661 576 l 660 584 l 662 590 q 666 609 654 618 q 641 628 602 635 q 582 638 561 638 q 492 638 420 602 q 349 567 275 491 q 234 448 201 399 q 164 345 144 296 q 123 247 116 202 q 108 158 108 136 q 108 122 111 111 q 125 39 186 39 q 220 39 270 68 q 298 84 322 102 q 346 120 394 162 l 451 212 l 464 223 l 503 255 q 550 294 584 301 q 598 304 609 304 q 615 304 622 303 q 624 303 636 300 l 642 298 l 648 296 l 651 292 l 655 287 l 659 283 l 664 279 l 665 259 l 668 228 q 676 155 690 112 q 705 68 731 35 l 723 14 l 711 2 l 694 -8 l 663 -8 q 637 10 622 34 q 608 59 598 108 l 581 192 l 578 209 q 563 204 552 199 q 541 194 522 181 l 480 148 l 462 134 l 418 102 q 358 58 325 38 q 292 19 258 6 q 210 -12 170 -12 q 108 -12 72 26 q 36 64 36 130 q 36 198 59 276 q 86 368 141 454 q 221 581 343 655 q 459 725 574 725 q 587 725 596 725 q 606 725 627 721 q 693 711 720 698 q 747 685 759 660 z"},"q":{"x_min":0,"x_max":883,"ha":883,"o":"m 701 -30 l 734 -67 l 728 -79 l 712 -88 q 667 -56 639 -32 q 605 -3 568 34 q 507 4 448 -10 q 390 -25 334 -25 q 235 -25 161 20 q 87 64 56 140 q 36 189 36 241 q 36 327 90 414 q 145 500 260 583 q 302 614 360 642 q 418 670 495 694 q 517 701 540 709 q 546 711 553 711 q 560 711 570 698 l 573 692 l 577 681 l 579 670 l 582 660 l 583 650 q 606 650 620 647 q 635 642 642 640 q 738 613 794 544 q 849 476 849 388 q 849 352 840 316 q 830 281 810 245 q 768 167 686 107 q 648 79 646 78 q 643 76 621 63 z m 434 186 l 390 244 l 409 274 l 443 298 l 472 289 l 504 237 l 506 218 q 532 179 543 164 q 558 142 585 108 q 649 145 692 199 q 730 245 749 294 q 768 344 768 389 q 768 458 728 512 q 687 567 615 592 q 595 599 566 602 q 537 605 512 605 q 430 598 380 558 q 331 519 313 450 l 309 428 l 303 425 l 296 421 l 290 417 l 284 413 l 279 413 l 273 415 l 268 419 l 263 424 l 258 429 l 255 433 q 255 454 262 474 q 270 493 284 512 l 264 497 q 225 466 200 438 q 175 411 156 379 q 118 318 118 253 q 118 176 171 117 q 224 58 314 42 q 333 38 360 38 q 436 38 526 77 q 478 130 434 186 z"},"d":{"x_min":0,"x_max":751,"ha":751,"o":"m 29 627 q 37 647 38 649 q 40 653 51 669 l 62 684 l 82 693 l 102 703 l 116 710 l 131 716 l 134 715 l 138 713 l 142 710 l 145 707 l 149 679 l 192 692 q 331 727 423 727 q 440 727 456 726 q 473 724 490 723 q 593 712 655 645 q 717 578 717 477 q 717 393 672 306 q 632 229 574 172 q 515 114 416 56 q 317 -1 249 -24 q 181 -48 121 -48 q 98 -48 72 -45 l 51 -42 l 45 -38 l 40 -32 l 38 -30 l 35 -27 q 47 12 66 46 l 71 50 q 81 57 91 58 l 114 54 l 125 52 l 175 40 l 189 37 q 203 34 218 34 q 262 34 320 63 q 385 95 477 168 q 517 199 548 238 q 578 277 601 326 q 617 361 624 394 q 632 426 632 459 q 632 538 588 592 q 544 645 469 659 q 437 665 400 665 q 352 665 306 656 q 259 648 197 628 l 155 613 l 157 582 l 158 559 l 159 537 l 160 473 l 164 145 q 163 132 160 120 q 158 108 153 96 l 148 92 l 142 88 l 126 78 l 111 86 l 106 89 l 101 93 l 83 555 q 67 584 41 599 l 37 606 l 34 612 z"},"1":{"x_min":0,"x_max":480,"ha":480,"o":"m 99 421 l 111 432 q 124 445 147 465 q 170 485 184 495 q 206 510 218 516 q 230 523 241 527 q 262 536 279 536 q 326 536 332 465 q 335 442 336 432 q 336 422 336 405 q 336 378 327 285 l 322 235 l 315 162 l 313 133 l 310 103 l 320 83 l 320 66 l 319 49 l 318 31 l 316 13 l 296 -1 l 272 -15 l 251 -9 l 243 -6 l 236 -3 l 233 34 l 239 87 l 243 119 l 258 231 q 261 255 265 294 q 269 334 269 344 q 269 361 269 368 q 269 389 268 410 q 268 432 260 442 q 253 453 241 453 q 234 453 229 449 l 204 428 l 175 404 l 162 392 l 147 379 l 134 368 l 100 381 l 99 390 l 98 399 z"},"5":{"x_min":0,"x_max":486,"ha":486,"o":"m 22 -102 l 24 -84 l 26 -78 l 27 -71 l 57 -43 l 75 -42 l 93 -40 l 113 -38 l 133 -35 l 149 -44 q 192 -44 228 -33 q 284 -18 320 4 q 356 26 377 56 q 391 78 391 98 q 391 138 349 152 q 322 162 257 169 q 230 172 196 172 q 180 172 172 172 l 166 171 l 118 169 q 97 169 90 169 q 82 169 79 170 q 49 175 49 204 q 49 212 54 222 l 78 268 l 96 302 q 112 333 127 367 q 148 413 160 449 l 167 470 l 168 473 q 178 489 194 489 l 202 489 l 220 490 q 285 490 341 490 q 397 489 444 489 l 446 475 l 447 461 l 448 447 l 448 433 l 426 416 l 413 415 l 401 415 l 389 415 l 377 415 l 360 426 l 324 425 l 289 424 l 256 423 l 224 422 l 209 388 q 192 349 180 324 q 168 300 143 257 l 130 235 l 173 237 q 277 237 324 230 q 371 222 402 199 q 427 179 439 158 q 451 136 451 107 q 451 86 443 54 q 427 -10 359 -57 q 284 -109 169 -123 q 116 -129 88 -129 q 55 -129 40 -122 q 26 -116 22 -102 z"}}}
